<svg width="789" height="242" viewBox="0 0 789 242" fill="none" xmlns="http://www.w3.org/2000/svg">
<path d="M250.956 194V48.5455H348.967V73.9006H281.708V108.56H343.924V133.915H281.708V168.645H349.251V194H250.956ZM373.417 194V48.5455H404.169V168.645H466.527V194H373.417ZM486.893 48.5455H524.819L564.876 146.273H566.581L606.637 48.5455H644.564V194H614.734V99.3267H613.527L575.885 193.29H555.572L517.93 98.9716H516.723V194H486.893V48.5455ZM748.807 90.3778C748.239 84.6487 745.801 80.1979 741.492 77.0256C737.183 73.8532 731.336 72.267 723.949 72.267C718.93 72.267 714.693 72.9773 711.236 74.3977C707.78 75.7708 705.128 77.6884 703.282 80.1506C701.482 82.6127 700.583 85.4062 700.583 88.5312C700.488 91.1354 701.033 93.4081 702.216 95.3494C703.447 97.2907 705.128 98.9716 707.259 100.392C709.39 101.765 711.852 102.973 714.645 104.014C717.439 105.009 720.422 105.861 723.594 106.571L736.662 109.696C743.007 111.116 748.831 113.01 754.134 115.378C759.437 117.745 764.03 120.657 767.912 124.114C771.795 127.57 774.801 131.642 776.932 136.33C779.11 141.017 780.223 146.391 780.27 152.452C780.223 161.353 777.95 169.071 773.452 175.605C769.001 182.092 762.562 187.134 754.134 190.733C745.753 194.284 735.644 196.06 723.807 196.06C712.065 196.06 701.837 194.26 693.125 190.662C684.461 187.063 677.69 181.737 672.813 174.682C667.983 167.58 665.45 158.796 665.213 148.332H694.972C695.303 153.209 696.7 157.281 699.162 160.548C701.672 163.768 705.01 166.206 709.176 167.864C713.391 169.473 718.149 170.278 723.452 170.278C728.66 170.278 733.182 169.521 737.017 168.006C740.9 166.491 743.907 164.384 746.037 161.685C748.168 158.986 749.233 155.884 749.233 152.381C749.233 149.114 748.263 146.367 746.321 144.142C744.427 141.917 741.634 140.023 737.941 138.46C734.295 136.898 729.82 135.477 724.517 134.199L708.679 130.222C696.416 127.239 686.733 122.575 679.631 116.23C672.529 109.885 669.001 101.339 669.049 90.5909C669.001 81.7841 671.345 74.09 676.08 67.5085C680.862 60.9271 687.42 55.7898 695.753 52.0966C704.087 48.4034 713.556 46.5568 724.162 46.5568C734.958 46.5568 744.38 48.4034 752.429 52.0966C760.526 55.7898 766.823 60.9271 771.321 67.5085C775.819 74.09 778.14 81.7131 778.282 90.3778H748.807Z" fill="#FDC212"/>
<path d="M69.6274 141.926L148.274 141.329L236.999 49.5571L109.542 50.0819L19.2702 141.977L57.2586 141.046L64.839 157.02C62.3195 164.304 66.1824 170.443 69.2638 172.468C72.3452 174.493 74.8583 196.677 75.3948 197.587L79.5061 219.832C86.6963 220.613 90.6898 219.265 97.7601 214.483L93.597 207.187L94.5005 206.803L98.6018 213.326L101.702 211.21C101.702 211.21 78.6575 178.167 77.3947 169.017C76.1319 159.866 73.8051 157.507 68.6786 155.39L62.6387 141.161L115.095 93.3057L120.666 93.8727L69.6274 141.926Z" fill="#FDC212"/>
<path d="M84.5635 145.715L98.8484 179.369C124.413 174.863 139.423 176.054 167.105 183.181C181.594 158.824 191.425 147.09 213.133 130.857L198.848 97.2044L151.095 145.463L84.5635 145.715Z" fill="#FDC212"/>
</svg>
