<svg width="584" height="229" viewBox="0 0 584 229" fill="none" xmlns="http://www.w3.org/2000/svg">
<path d="M233.531 167.841V73.2952H297.238V89.776H253.52V112.304H293.961V128.785H253.52V151.36H297.423V167.841H233.531ZM313.131 167.841V73.2952H333.12V151.36H373.653V167.841H313.131ZM386.89 73.2952H411.542L437.579 136.818H438.687L464.724 73.2952H489.376V167.841H469.987V106.303H469.202L444.735 167.379H431.532L407.064 106.072H406.28V167.841H386.89V73.2952ZM557.134 100.486C556.765 96.7623 555.18 93.8693 552.379 91.8072C549.579 89.7452 545.778 88.7142 540.977 88.7142C537.714 88.7142 534.96 89.1758 532.713 90.0991C530.467 90.9917 528.743 92.2381 527.543 93.8385C526.373 95.4389 525.789 97.2547 525.789 99.2859C525.727 100.979 526.081 102.456 526.85 103.718C527.651 104.98 528.743 106.072 530.128 106.995C531.513 107.888 533.113 108.673 534.929 109.35C536.745 109.996 538.684 110.55 540.746 111.012L549.24 113.043C553.364 113.966 557.15 115.197 560.597 116.736C564.044 118.275 567.029 120.168 569.553 122.414C572.076 124.661 574.031 127.308 575.416 130.355C576.831 133.402 577.555 136.895 577.585 140.834C577.555 146.62 576.077 151.637 573.154 155.884C570.261 160.1 566.075 163.378 560.597 165.717C555.149 168.025 548.579 169.179 540.884 169.179C533.252 169.179 526.604 168.01 520.941 165.671C515.309 163.332 510.908 159.87 507.738 155.284C504.599 150.667 502.952 144.958 502.799 138.157H522.142C522.357 141.327 523.265 143.973 524.865 146.097C526.496 148.19 528.666 149.775 531.374 150.852C534.114 151.898 537.207 152.422 540.654 152.422C544.039 152.422 546.978 151.929 549.471 150.944C551.995 149.959 553.949 148.59 555.334 146.836C556.719 145.081 557.411 143.066 557.411 140.788C557.411 138.664 556.781 136.879 555.519 135.433C554.288 133.986 552.472 132.755 550.071 131.74C547.701 130.724 544.793 129.801 541.346 128.97L531.051 126.385C523.08 124.446 516.786 121.414 512.17 117.29C507.553 113.166 505.261 107.611 505.291 100.625C505.261 94.9003 506.784 89.8991 509.862 85.6212C512.97 81.3432 517.233 78.004 522.649 75.6034C528.066 73.2028 534.221 72.0026 541.115 72.0026C548.132 72.0026 554.257 73.2028 559.489 75.6034C564.752 78.004 568.845 81.3432 571.769 85.6212C574.692 89.8991 576.2 94.8541 576.293 100.486H557.134Z" fill="#FDC212"/>
<path d="M69.6274 137.767L148.274 137.17L236.999 45.3978L109.542 45.9225L19.2702 137.818L57.2586 136.887L64.839 152.861C62.3195 160.145 66.1824 166.283 69.2638 168.309C72.3452 170.334 74.8583 192.518 75.3948 193.428L79.5061 215.673C86.6963 216.454 90.6898 215.105 97.7601 210.323L93.597 203.027L94.5005 202.644L98.6018 209.166L101.702 207.051C101.702 207.051 78.6575 174.008 77.3947 164.857C76.1319 155.707 73.8051 153.347 68.6786 151.231L62.6387 137.002L115.095 89.1463L120.666 89.7134L69.6274 137.767Z" fill="#FDC212"/>
<path d="M84.5635 141.556L98.8483 175.209C124.413 170.704 139.423 171.895 167.105 179.022C181.594 154.665 191.425 142.931 213.133 126.698L198.848 93.0451L151.095 141.303L84.5635 141.556Z" fill="#FDC212"/>
</svg>
